<svg width="483" height="818" viewBox="0 0 483 818" fill="none" xmlns="http://www.w3.org/2000/svg">
<path d="M345 52C402 419 205 447 205 447C205 447 2 408 65 52" stroke="#222222" stroke-width="4"/>
<path d="M105.664 816.525H105.535C105.681 815.454 106.284 814.189 107.387 812.767C108.658 811.127 110.552 809.331 113.023 807.455C117.963 803.706 125.152 799.68 134.112 795.979C152.029 788.578 176.964 782.5 205 782.5C233.036 782.5 257.971 788.578 275.888 795.979C284.848 799.68 292.037 803.706 296.977 807.455C299.448 809.331 301.342 811.127 302.613 812.767C303.716 814.189 304.319 815.454 304.465 816.525H304.41H304.306H304.201H304.094H303.986H303.876H303.765H303.652H303.538H303.422H303.305H303.187H303.067H302.946H302.823H302.699H302.573H302.446H302.317H302.188H302.056H301.924H301.79H301.654H301.518H301.38H301.24H301.099H300.957H300.814H300.669H300.523H300.376H300.227H300.077H299.926H299.774H299.62H299.465H299.309H299.151H298.992H298.832H298.671H298.509H298.345H298.18H298.014H297.847H297.678H297.508H297.338H297.166H296.992H296.818H296.643H296.466H296.288H296.109H295.929H295.748H295.566H295.383H295.198H295.013H294.826H294.639H294.45H294.26H294.069H293.877H293.684H293.49H293.295H293.099H292.902H292.704H292.505H292.305H292.104H291.902H291.699H291.495H291.291H291.085H290.878H290.67H290.462H290.252H290.041H289.83H289.618H289.405H289.19H288.976H288.76H288.543H288.325H288.107H287.888H287.667H287.447H287.225H287.002H286.779H286.554H286.329H286.104H285.877H285.649H285.421H285.192H284.963H284.732H284.501H284.269H284.036H283.803H283.569H283.334H283.098H282.862H282.625H282.387H282.149H281.91H281.67H281.43H281.189H280.947H280.705H280.462H280.219H279.975H279.73H279.485H279.239H278.992H278.745H278.497H278.249H278H277.751H277.501H277.25H276.999H276.748H276.496H276.243H275.99H275.736H275.482H275.227H274.972H274.717H274.461H274.204H273.947H273.69H273.432H273.174H272.915H272.656H272.396H272.136H271.876H271.615H271.354H271.093H270.831H270.569H270.306H270.043H269.78H269.516H269.252H268.988H268.723H268.458H268.193H267.927H267.662H267.395H267.129H266.862H266.595H266.328H266.061H265.793H265.525H265.257H264.988H264.72H264.451H264.182H263.913H263.643H263.374H263.104H262.834H262.564H262.294H262.023H261.753H261.482H261.211H260.94H260.669H260.398H260.127H259.855H259.584H259.312H259.041H258.769H258.497H258.225H257.954H257.682H257.41H257.138H256.866H256.594H256.322H256.05H255.778H255.506H255.234H254.962H254.69H254.418H254.146H253.875H253.603H253.331H253.06H252.788H252.517H252.246H251.974H251.703H251.432H251.162H250.891H250.62H250.35H250.08H249.809H249.539H249.27H249H248.731H248.461H248.192H247.923H247.655H247.386H247.118H246.85H246.582H246.315H246.048H245.781H245.514H245.248H244.981H244.716H244.45H244.185H243.92H243.655H243.391H243.127H242.863H242.6H242.337H242.074H241.812H241.55H241.288H241.027H240.766H240.506H240.246H239.986H239.727H239.468H239.21H238.952H238.695H238.438H238.181H237.925H237.669H237.414H237.16H236.906H236.652H236.399H236.146H235.894H235.642H235.391H235.141H234.891H234.641H234.392H234.144H233.896H233.649H233.402H233.156H232.911H232.666H232.422H232.178H231.935H231.693H231.451H231.21H230.97H230.73H230.491H230.253H230.015H229.778H229.542H229.306H229.071H228.837H228.603H228.371H228.138H227.907H227.677H227.447H227.218H226.99H226.762H226.535H226.309H226.084H225.86H225.636H225.414H225.192H224.971H224.75H224.531H224.313H224.095H223.878H223.662H223.447H223.233H223.02H222.807H222.596H222.385H222.175H221.967H221.759H221.552H221.346H221.141H220.937H220.734H220.532H220.331H220.131H219.932H219.733H219.536H219.34H219.145H218.951H218.758H218.566H218.375H218.185H217.996H217.808H217.622H217.436H217.252H217.068H216.886H216.705H216.524H216.345H216.168H215.991H215.815H215.641H215.468H215.295H215.124H214.955H214.786H214.619H214.452H214.287H214.124H213.961H213.8H213.639H213.481H213.323H213.166H213.011H212.857H212.705H212.553H212.403H212.255H212.107H211.961H211.816H211.673H211.53H211.389H211.25H211.112H210.975H210.839H210.705H210.573H210.441H210.311H210.183H210.055H209.93H209.805H209.682H209.561H209.441H209.322H209.205H209.089H208.975H208.862H208.751H208.641H208.532H208.425H208.32H208.216H208.114H208.013H207.914H207.816H207.72H207.625H207.532H207.44H207.35H207.262H207.175H207.09H207.006H206.924H206.843H206.765H206.687H206.612H206.538H206.466H206.395H206.326H206.259H206.193H206.129H206.067H206.006H205.947H205.89H205.835H205.781H205.729H205.679H205.63H205.583H205.538H205.495H205.453H205.413H205.375H205.339H205.305H205.272H205.241H205.212H205.185H205.16H205.136H205.115H205.095H205.077H205.061H205.047H205.034H205.024H205.015H205.009H205.004H205.001C205 816.525 205 816.525 205 817.025C205 816.525 205 816.525 204.999 816.525H204.997H204.993H204.987H204.98H204.971H204.96H204.948H204.934H204.918H204.901H204.883H204.863H204.841H204.818H204.793H204.766H204.738H204.708H204.677H204.645H204.61H204.575H204.537H204.499H204.458H204.416H204.373H204.328H204.282H204.234H204.185H204.134H204.081H204.028H203.972H203.916H203.858H203.798H203.737H203.674H203.611H203.545H203.478H203.41H203.341H203.27H203.197H203.123H203.048H202.971H202.894H202.814H202.733H202.651H202.568H202.483H202.397H202.309H202.22H202.13H202.039H201.946H201.852H201.756H201.659H201.561H201.462H201.361H201.259H201.156H201.051H200.945H200.838H200.73H200.62H200.509H200.397H200.284H200.169H200.053H199.936H199.818H199.698H199.578H199.456H199.332H199.208H199.083H198.956H198.828H198.699H198.569H198.437H198.305H198.171H198.036H197.9H197.763H197.625H197.485H197.345H197.203H197.06H196.916H196.771H196.625H196.478H196.33H196.18H196.03H195.878H195.726H195.572H195.417H195.262H195.105H194.947H194.788H194.628H194.467H194.305H194.142H193.978H193.813H193.647H193.48H193.313H193.144H192.974H192.803H192.631H192.458H192.284H192.109H191.934H191.757H191.58H191.401H191.222H191.041H190.86H190.678H190.495H190.311H190.126H189.94H189.753H189.566H189.377H189.188H188.998H188.807H188.615H188.422H188.229H188.034H187.839H187.643H187.446H187.249H187.05H186.851H186.651H186.45H186.248H186.045H185.842H185.638H185.433H185.228H185.021H184.814H184.606H184.398H184.188H183.978H183.767H183.556H183.344H183.131H182.917H182.703H182.487H182.272H182.055H181.838H181.62H181.402H181.183H180.963H180.742H180.521H180.299H180.077H179.854H179.63H179.406H179.181H178.955H178.729H178.502H178.275H178.047H177.818H177.589H177.359H177.129H176.898H176.667H176.435H176.202H175.969H175.735H175.501H175.266H175.031H174.795H174.559H174.322H174.085H173.847H173.609H173.37H173.131H172.891H172.651H172.41H172.169H171.927H171.685H171.443H171.2H170.956H170.712H170.468H170.223H169.978H169.733H169.487H169.24H168.994H168.746H168.499H168.251H168.003H167.754H167.505H167.256H167.006H166.756H166.505H166.254H166.003H165.752H165.5H165.248H164.995H164.743H164.49H164.236H163.983H163.729H163.475H163.22H162.965H162.71H162.455H162.199H161.944H161.688H161.431H161.175H160.918H160.661H160.404H160.146H159.889H159.631H159.373H159.115H158.856H158.597H158.339H158.08H157.821H157.561H157.302H157.042H156.782H156.522H156.262H156.002H155.742H155.481H155.221H154.96H154.699H154.438H154.178H153.916H153.655H153.394H153.133H152.871H152.61H152.348H152.087H151.825H151.563H151.302H151.04H150.778H150.516H150.255H149.993H149.731H149.469H149.207H148.945H148.683H148.422H148.16H147.898H147.636H147.375H147.113H146.851H146.59H146.328H146.067H145.806H145.544H145.283H145.022H144.761H144.5H144.239H143.978H143.718H143.457H143.197H142.937H142.676H142.416H142.157H141.897H141.637H141.378H141.119H140.86H140.601H140.342H140.083H139.825H139.567H139.309H139.051H138.793H138.536H138.279H138.022H137.765H137.509H137.253H136.997H136.741H136.486H136.231H135.976H135.721H135.467H135.212H134.959H134.705H134.452H134.199H133.946H133.694H133.442H133.19H132.939H132.688H132.438H132.187H131.937H131.688H131.438H131.189H130.941H130.693H130.445H130.198H129.951H129.704H129.458H129.212H128.967H128.722H128.477H128.233H127.989H127.746H127.503H127.261H127.019H126.778H126.537H126.296H126.056H125.816H125.577H125.339H125.101H124.863H124.626H124.389H124.153H123.918H123.683H123.448H123.214H122.981H122.748H122.516H122.284H122.053H121.822H121.592H121.362H121.133H120.905H120.677H120.45H120.224H119.998H119.772H119.548H119.324H119.1H118.877H118.655H118.434H118.213H117.993H117.773H117.554H117.336H117.118H116.902H116.685H116.47H116.255H116.041H115.828H115.615H115.403H115.192H114.981H114.771H114.562H114.354H114.146H113.94H113.734H113.528H113.324H113.12H112.917H112.715H112.513H112.313H112.113H111.914H111.716H111.519H111.322H111.126H110.931H110.737H110.544H110.352H110.16H109.97H109.78H109.591H109.403H109.216H109.029H108.844H108.659H108.476H108.293H108.111H107.93H107.75H107.571H107.393H107.216H107.04H106.864H106.69H106.517H106.344H106.173H106.002H105.833H105.664Z" fill="#222222" stroke="#222222"/>
<line x1="207.5" y1="447.007" x2="206.515" y2="782.007" stroke="#222222" stroke-width="5"/>
<path d="M354.494 141.109C348.075 -34.0136 354.322 194.007 354.49 200.146C354.496 200.338 354.491 200.34 354.484 200.533C354.349 204.033 352.813 241.842 349 259C345 277 344.994 279.271 332.994 318.609C322.128 354.227 301.015 385.192 297.12 390.73C296.706 391.317 296.217 391.843 295.668 392.308L253.233 428.223C252.413 428.916 251.477 429.458 250.467 429.821L205.469 446.02C203.243 446.822 200.803 446.72 198.674 445.686C183.414 438.274 119.855 406.002 99 373C79.1218 341.545 61.0163 258.477 55.6235 232.135C54.6798 227.526 57.5083 223.077 62.1166 222.128C76.9255 219.079 108.587 214.296 127.997 224C154 237 151.994 258 201.994 224C251.994 190 361 318.609 354.494 141.109Z" fill="#7C02F5" fill-opacity="0.17"/>
</svg>
