<svg width="812" height="225" viewBox="0 0 812 225" fill="none" xmlns="http://www.w3.org/2000/svg">
<path d="M112.634 34.8867C123.165 105.46 86.7688 110.845 86.7688 110.845C86.7688 110.845 49.2644 103.345 60.9037 34.8867" stroke="#222222" stroke-width="4"/>
<path d="M69.0381 181.5H69.0061C69.0236 181.475 69.0424 181.448 69.0626 181.421C69.2696 181.143 69.5908 180.823 70.0301 180.476C70.9071 179.783 72.2019 179.025 73.8344 178.323C77.0967 176.921 81.6485 175.765 86.7688 175.765C91.8891 175.765 96.4409 176.921 99.7032 178.323C101.336 179.025 102.63 179.783 103.508 180.476C103.947 180.823 104.268 181.143 104.475 181.421C104.495 181.448 104.514 181.475 104.532 181.5H104.523H104.497H104.471H104.444H104.417H104.39H104.362H104.334H104.307H104.278H104.25H104.221H104.192H104.163H104.134H104.104H104.075H104.045H104.014H103.984H103.953H103.922H103.891H103.86H103.828H103.797H103.765H103.732H103.7H103.667H103.634H103.601H103.568H103.535H103.501H103.467H103.433H103.399H103.364H103.33H103.295H103.26H103.224H103.189H103.153H103.117H103.081H103.045H103.009H102.972H102.936H102.899H102.861H102.824H102.787H102.749H102.711H102.673H102.635H102.596H102.558H102.519H102.48H102.441H102.402H102.363H102.323H102.283H102.243H102.203H102.163H102.123H102.082H102.042H102.001H101.96H101.919H101.877H101.836H101.794H101.753H101.711H101.669H101.627H101.584H101.542H101.499H101.457H101.414H101.371H101.328H101.284H101.241H101.198H101.154H101.11H101.066H101.022H100.978H100.934H100.889H100.845H100.8H100.755H100.711H100.666H100.62H100.575H100.53H100.484H100.439H100.393H100.347H100.302H100.256H100.21H100.163H100.117H100.071H100.024H99.9777H99.931H99.8842H99.8374H99.7904H99.7434H99.6963H99.6491H99.6018H99.5544H99.5069H99.4593H99.4117H99.364H99.3162H99.2683H99.2204H99.1723H99.1242H99.0761H99.0278H98.9795H98.9311H98.8827H98.8342H98.7856H98.7369H98.6882H98.6394H98.5906H98.5417H98.4928H98.4438H98.3947H98.3456H98.2964H98.2472H98.1979H98.1486H98.0992H98.0498H98.0004H97.9509H97.9013H97.8517H97.8021H97.7524H97.7027H97.653H97.6032H97.5534H97.5036H97.4537H97.4038H97.3539H97.3039H97.2539H97.2039H97.1539H97.1038H97.0537H97.0036H96.9535H96.9034H96.8532H96.8031H96.7529H96.7027H96.6525H96.6023H96.552H96.5018H96.4516H96.4013H96.3511H96.3008H96.2506H96.2003H96.1501H96.0998H96.0496H95.9993H95.9491H95.8989H95.8487H95.7985H95.7483H95.6981H95.6479H95.5977H95.5476H95.4975H95.4474H95.3973H95.3472H95.2972H95.2472H95.1972H95.1472H95.0973H95.0474H94.9975H94.9477H94.8979H94.8481H94.7983H94.7486H94.699H94.6493H94.5997H94.5502H94.5007H94.4512H94.4018H94.3524H94.3031H94.2538H94.2046H94.1554H94.1063H94.0572H94.0082H93.9593H93.9104H93.8615H93.8128H93.764H93.7154H93.6668H93.6183H93.5698H93.5214H93.4731H93.4248H93.3767H93.3286H93.2805H93.2326H93.1847H93.1369H93.0892H93.0415H92.9939H92.9465H92.8991H92.8518H92.8045H92.7574H92.7104H92.6634H92.6165H92.5698H92.5231H92.4765H92.43H92.3836H92.3373H92.2911H92.2451H92.1991H92.1532H92.1074H92.0617H92.0162H91.9707H91.9254H91.8802H91.835H91.79H91.7451H91.7004H91.6557H91.6112H91.5668H91.5225H91.4783H91.4343H91.3904H91.3466H91.3029H91.2594H91.216H91.1727H91.1295H91.0865H91.0437H91.0009H90.9583H90.9159H90.8736H90.8314H90.7894H90.7475H90.7057H90.6642H90.6227H90.5814H90.5403H90.4993H90.4584H90.4177H90.3772H90.3368H90.2966H90.2566H90.2167H90.1769H90.1374H90.098H90.0587H90.0196H89.9807H89.942H89.9034H89.865H89.8268H89.7888H89.7509H89.7132H89.6757H89.6384H89.6012H89.5642H89.5274H89.4908H89.4544H89.4182H89.3821H89.3463H89.3106H89.2751H89.2399H89.2048H89.1699H89.1352H89.1007H89.0664H89.0323H88.9984H88.9647H88.9313H88.898H88.8649H88.832H88.7994H88.767H88.7347H88.7027H88.6709H88.6393H88.608H88.5768H88.5459H88.5152H88.4847H88.4544H88.4244H88.3946H88.365H88.3356H88.3065H88.2776H88.2489H88.2205H88.1923H88.1643H88.1366H88.1091H88.0819H88.0549H88.0281H88.0016H87.9753H87.9493H87.9235H87.898H87.8727H87.8477H87.8229H87.7983H87.7741H87.7501H87.7263H87.7028H87.6796H87.6566H87.6339H87.6114H87.5892H87.5673H87.5457H87.5243H87.5031H87.4823H87.4617H87.4414H87.4214H87.4017H87.3822H87.363H87.3441H87.3255H87.3071H87.289H87.2713H87.2538H87.2366H87.2196H87.203H87.1867H87.1706H87.1549H87.1394H87.1243H87.1094H87.0948H87.0806H87.0666H87.0529H87.0396H87.0265H87.0138H87.0014H86.9892H86.9774H86.9659H86.9547H86.9438H86.9333H86.923H86.9131H86.9035H86.8942H86.8852H86.8766H86.8682H86.8602H86.8526H86.8452H86.8382H86.8315H86.8251H86.8191H86.8134H86.8081H86.8031H86.7984H86.794H86.79H86.7864H86.7831H86.7801H86.7775H86.7752H86.7732H86.7717H86.7704H86.7695H86.769C86.7689 181.5 86.7688 181.5 86.7688 182C86.7688 181.5 86.7688 181.5 86.7687 181.5H86.7682H86.7675H86.7664H86.765H86.7634H86.7614H86.7592H86.7566H86.7538H86.7506H86.7472H86.7434H86.7394H86.7351H86.7305H86.7256H86.7204H86.715H86.7092H86.7032H86.6968H86.6902H86.6833H86.6762H86.6687H86.661H86.653H86.6447H86.6361H86.6273H86.6182H86.6088H86.5991H86.5892H86.579H86.5685H86.5578H86.5468H86.5355H86.5239H86.5121H86.5H86.4877H86.4751H86.4622H86.4491H86.4357H86.4221H86.4082H86.3941H86.3796H86.365H86.3501H86.3349H86.3195H86.3038H86.2879H86.2717H86.2553H86.2386H86.2217H86.2045H86.1871H86.1695H86.1516H86.1335H86.1151H86.0965H86.0777H86.0586H86.0393H86.0197H85.9999H85.9799H85.9596H85.9391H85.9184H85.8975H85.8763H85.8549H85.8333H85.8114H85.7893H85.767H85.7445H85.7217H85.6988H85.6756H85.6522H85.6285H85.6047H85.5806H85.5563H85.5318H85.5071H85.4822H85.4571H85.4317H85.4062H85.3804H85.3545H85.3283H85.3019H85.2753H85.2485H85.2215H85.1944H85.167H85.1394H85.1116H85.0836H85.0554H85.027H84.9984H84.9696H84.9407H84.9115H84.8822H84.8526H84.8229H84.793H84.7629H84.7326H84.7021H84.6714H84.6406H84.6095H84.5783H84.5469H84.5154H84.4836H84.4517H84.4196H84.3873H84.3548H84.3222H84.2894H84.2564H84.2233H84.1899H84.1564H84.1228H84.089H84.055H84.0208H83.9865H83.952H83.9174H83.8825H83.8476H83.8124H83.7772H83.7417H83.7061H83.6703H83.6344H83.5984H83.5621H83.5258H83.4892H83.4526H83.4157H83.3788H83.3416H83.3044H83.267H83.2294H83.1917H83.1539H83.1159H83.0777H83.0395H83.0011H82.9625H82.9239H82.885H82.8461H82.807H82.7678H82.7284H82.689H82.6494H82.6096H82.5697H82.5298H82.4896H82.4494H82.409H82.3685H82.3279H82.2872H82.2463H82.2053H82.1642H82.123H82.0817H82.0402H81.9987H81.957H81.9152H81.8733H81.8313H81.7892H81.747H81.7046H81.6622H81.6196H81.577H81.5342H81.4914H81.4484H81.4053H81.3622H81.3189H81.2755H81.2321H81.1885H81.1448H81.1011H81.0573H81.0133H80.9693H80.9252H80.881H80.8367H80.7923H80.7478H80.7033H80.6586H80.6139H80.5691H80.5242H80.4792H80.4341H80.389H80.3438H80.2985H80.2531H80.2077H80.1622H80.1166H80.0709H80.0252H79.9794H79.9335H79.8876H79.8416H79.7955H79.7494H79.7031H79.6569H79.6105H79.5641H79.5177H79.4712H79.4246H79.3779H79.3313H79.2845H79.2377H79.1908H79.1439H79.097H79.0499H79.0029H78.9558H78.9086H78.8614H78.8141H78.7668H78.7195H78.6721H78.6246H78.5771H78.5296H78.4821H78.4345H78.3868H78.3392H78.2914H78.2437H78.1959H78.1481H78.1003H78.0524H78.0045H77.9565H77.9086H77.8606H77.8125H77.7645H77.7164H77.6683H77.6202H77.5721H77.5239H77.4757H77.4275H77.3793H77.3311H77.2828H77.2346H77.1863H77.138H77.0897H77.0414H76.993H76.9447H76.8964H76.848H76.7997H76.7513H76.7029H76.6546H76.6062H76.5578H76.5094H76.461H76.4127H76.3643H76.3159H76.2676H76.2192H76.1708H76.1225H76.0741H76.0258H75.9775H75.9292H75.8809H75.8326H75.7843H75.7361H75.6878H75.6396H75.5914H75.5432H75.495H75.4469H75.3987H75.3506H75.3025H75.2545H75.2064H75.1584H75.1104H75.0625H75.0146H74.9667H74.9188H74.871H74.8232H74.7754H74.7277H74.68H74.6323H74.5847H74.5371H74.4896H74.4421H74.3946H74.3472H74.2998H74.2525H74.2052H74.1579H74.1107H74.0636H74.0165H73.9695H73.9225H73.8755H73.8286H73.7818H73.735H73.6883H73.6416H73.595H73.5484H73.5019H73.4555H73.4091H73.3628H73.3166H73.2704H73.2243H73.1782H73.1323H73.0863H73.0405H72.9947H72.949H72.9034H72.8578H72.8123H72.7669H72.7216H72.6763H72.6312H72.5861H72.541H72.4961H72.4512H72.4065H72.3618H72.3172H72.2726H72.2282H72.1839H72.1396H72.0954H72.0513H72.0074H71.9635H71.9196H71.8759H71.8323H71.7888H71.7454H71.7021H71.6588H71.6157H71.5727H71.5298H71.4869H71.4442H71.4016H71.3591H71.3167H71.2744H71.2322H71.1901H71.1482H71.1063H71.0646H71.023H70.9814H70.9401H70.8988H70.8576H70.8166H70.7756H70.7348H70.6941H70.6536H70.6131H70.5728H70.5326H70.4925H70.4526H70.4128H70.3731H70.3335H70.2941H70.2548H70.2157H70.1766H70.1377H70.099H70.0604H70.0219H69.9835H69.9453H69.9073H69.8693H69.8315H69.7939H69.7564H69.7191H69.6818H69.6448H69.6079H69.5711H69.5345H69.498H69.4617H69.4256H69.3896H69.3537H69.318H69.2825H69.2471H69.2119H69.1768H69.1419H69.1071H69.0726H69.0381Z" fill="#222222" stroke="#222222"/>
<line y1="-2.5" x2="64.4202" y2="-2.5" transform="matrix(-0.00282578 0.999996 -0.999995 -0.00306126 86.7688 110.845)" stroke="#222222" stroke-width="5"/>
<path d="M114.369 52.0497C113.223 19.4214 114.266 59.4949 114.362 63.1722C114.367 63.3686 114.366 63.5322 114.358 63.7285C114.3 65.1772 114.009 71.6751 113.356 74.7431C112.618 78.208 112.616 78.6452 110.402 86.2174C108.682 92.1002 105.57 97.3236 104.267 99.3616C103.877 99.972 103.397 100.509 102.86 100.983L96.6693 106.449C95.8677 107.157 94.9511 107.709 93.9629 108.08L89.6329 109.707C87.4536 110.525 85.0548 110.424 83.0078 109.293C78.4433 106.771 70.3097 101.774 67.2283 96.6873C64.6361 92.408 62.2074 83.1662 60.6545 76.3238C59.5937 71.6497 62.3914 66.8749 66.9954 66.8936C68.9891 66.9017 71.0027 67.1837 72.5785 68.0056C77.3763 70.5081 77.0061 74.5505 86.2316 68.0057C95.4571 61.4609 115.57 86.2174 114.369 52.0497Z" fill="#7C02F5" fill-opacity="0.17"/>
<rect x="2.5" y="2.5" width="807" height="220" stroke="#222222" stroke-width="5"/>
<path d="M260.744 162L198.195 77.1123C196.926 75.4033 195.803 73.6943 194.826 71.9854L193.874 70.5205H193.581C193.679 71.79 193.728 73.3281 193.728 75.1348V162H186.477V56.9707H192.043L254.152 141.126C255.52 142.981 257.009 145.228 258.62 147.864H258.986C258.742 144.446 258.62 141.517 258.62 139.075V56.9707H265.871V162H260.744ZM336.184 162V146.985H335.891C333.498 152.112 330.007 156.214 325.417 159.29C320.876 162.317 315.822 163.831 310.256 163.831C303.127 163.831 297.487 161.829 293.337 157.825C289.187 153.821 287.111 148.768 287.111 142.664C287.111 129.578 295.778 121.668 313.112 118.934L336.184 115.491C336.184 99.3779 330.129 91.3213 318.02 91.3213C309.768 91.3213 301.735 94.6416 293.923 101.282V93.1523C296.706 90.9551 300.466 89.0752 305.202 87.5127C309.987 85.9502 314.479 85.1689 318.679 85.1689C326.394 85.1689 332.351 87.5615 336.55 92.3467C340.798 97.1318 342.922 104.09 342.922 113.221V162H336.184ZM315.529 124.646C307.668 125.77 302.15 127.601 298.977 130.14C295.803 132.63 294.216 136.707 294.216 142.371C294.216 146.814 295.681 150.477 298.61 153.357C301.589 156.238 305.715 157.679 310.988 157.679C318.215 157.679 324.221 155.018 329.006 149.695C333.791 144.324 336.184 137.415 336.184 128.968V121.644L315.529 124.646ZM390.09 162H383.938L354.934 87H362.478L384.816 146.692C385.891 149.573 386.647 152.186 387.087 154.529H387.38C388.015 151.453 388.723 148.938 389.504 146.985L412.575 87H419.899L390.09 162ZM476.076 162V56.9707H503.688C511.94 56.9707 518.508 59.1924 523.391 63.6357C528.273 68.0791 530.715 73.9629 530.715 81.2871C530.715 87.3906 529.079 92.6885 525.808 97.1807C522.585 101.624 518.068 104.773 512.258 106.629V106.922C519.533 107.605 525.271 110.218 529.47 114.759C533.669 119.251 535.769 124.988 535.769 131.971C535.769 140.809 532.912 148.035 527.199 153.65C521.486 159.217 513.845 162 504.274 162H476.076ZM483.327 63.6357V104.285H497.976C505.593 104.285 511.696 102.332 516.286 98.4258C520.876 94.5195 523.171 89.2217 523.171 82.5322C523.171 69.9346 515.725 63.6357 500.832 63.6357H483.327ZM483.327 110.877V155.408H502.81C511.062 155.408 517.36 153.431 521.706 149.476C526.101 145.521 528.298 139.905 528.298 132.63C528.298 118.128 518.459 110.877 498.781 110.877H483.327ZM626.076 162L614.064 129.334H568.508L556.496 162H548.513L588.137 56.9707H595.021L634.206 162H626.076ZM593.85 74.1094C593.312 72.6445 592.873 71.2041 592.531 69.7881C592.189 68.5674 591.823 67.3467 591.433 66.126H591.14C590.31 69.3486 589.504 71.9609 588.723 73.9629L571.071 122.669H611.574L593.85 74.1094ZM705.764 162L691.774 131.238C688.894 124.891 686.013 120.643 683.132 118.494C680.251 116.297 676.638 115.198 672.292 115.198H659.255V162H652.004V56.9707H681.154C690.432 56.9707 697.707 59.4854 702.98 64.5146C708.303 69.4951 710.964 76.0869 710.964 84.29C710.964 91.8584 708.791 98.1816 704.445 103.26C700.1 108.338 694.021 111.609 686.208 113.074V113.367C690.358 115.027 694.411 120.081 698.366 128.528L713.967 162H705.764ZM659.255 63.6357V108.606H677.346C685.354 108.606 691.701 106.507 696.389 102.308C701.125 98.1084 703.493 92.3467 703.493 85.0225C703.493 78.333 701.369 73.1084 697.121 69.3486C692.873 65.54 686.794 63.6357 678.884 63.6357H659.255Z" fill="black"/>
</svg>
